HIERARCHY
ROOT RootJoint
{
    OFFSET   0.000000   0.000000   0.000000
    CHANNELS 6 Xposition Yposition Zposition Xrotation Yrotation Zrotation
    JOINT pelvis_lowerback
    {
        OFFSET   0.000000   0.093605   0.000000
        CHANNELS 3 Xrotation Yrotation Zrotation
        JOINT lowerback_torso
        {
            OFFSET   0.000000   0.100000   0.000000
            CHANNELS 3 Xrotation Yrotation Zrotation
            JOINT torso_head
            {
                OFFSET   0.000000   0.282350   0.000000
                CHANNELS 3 Xrotation Yrotation Zrotation
                End Site
                {
                    OFFSET   0.000000   0.192650   0.000000
                }
            }
            JOINT rTorso_Clavicle
            {
                OFFSET  -0.001000   0.157500   0.000000
                CHANNELS 3 Xrotation Yrotation Zrotation
                JOINT rShoulder
                {
                    OFFSET  -0.117647   0.000000   0.000000
                    CHANNELS 3 Xrotation Yrotation Zrotation
                    JOINT rElbow
                    {
                        OFFSET  -0.245000   0.000000   0.000000
                        CHANNELS 3 Xrotation Yrotation Zrotation
                        JOINT rWrist
                        {
                            OFFSET  -0.240000   0.000000   0.000000
                            CHANNELS 3 Xrotation Yrotation Zrotation
                            End Site
                            {
                                OFFSET  -0.116353  -0.002500   0.000000
                            }
                        }
                    }
                }
            }
            JOINT lTorso_Clavicle
            {
                OFFSET   0.001000   0.157500   0.000000
                CHANNELS 3 Xrotation Yrotation Zrotation
                JOINT lShoulder
                {
                    OFFSET   0.117647   0.000000   0.000000
                    CHANNELS 3 Xrotation Yrotation Zrotation
                    JOINT lElbow
                    {
                        OFFSET   0.245000   0.000000   0.000000
                        CHANNELS 3 Xrotation Yrotation Zrotation
                        JOINT lWrist
                        {
                            OFFSET   0.240000   0.000000   0.000000
                            CHANNELS 3 Xrotation Yrotation Zrotation
                            End Site
                            {
                                OFFSET   0.116353  -0.002500   0.000000
                            }
                        }
                    }
                }
            }
        }
    }
    JOINT rHip
    {
        OFFSET  -0.100000  -0.051395   0.000000
        CHANNELS 3 Xrotation Yrotation Zrotation
        JOINT rKnee
        {
            OFFSET   0.000000  -0.410000   0.000000
            CHANNELS 3 Xrotation Yrotation Zrotation
            JOINT rAnkle
            {
                OFFSET   0.000000  -0.390000   0.000000
                CHANNELS 3 Xrotation Yrotation Zrotation
                JOINT rToeJoint
                {
                    OFFSET   0.000000  -0.050000   0.130000
                    CHANNELS 3 Xrotation Yrotation Zrotation
                    End Site
                    {
                        OFFSET  -0.010000   0.002000   0.060000
                    }
                }
            }
        }
    }
    JOINT lHip
    {
        OFFSET   0.100000  -0.051395   0.000000
        CHANNELS 3 Xrotation Yrotation Zrotation
        JOINT lKnee
        {
            OFFSET   0.000000  -0.410000   0.000000
            CHANNELS 3 Xrotation Yrotation Zrotation
            JOINT lAnkle
            {
                OFFSET   0.000000  -0.390000   0.000000
                CHANNELS 3 Xrotation Yrotation Zrotation
                JOINT lToeJoint
                {
                    OFFSET   0.000000  -0.050000   0.130000
                    CHANNELS 3 Xrotation Yrotation Zrotation
                    End Site
                    {
                        OFFSET   0.010000   0.002000   0.060000
                    }
                }
            }
        }
    }
}
MOTION
Frames: 12
Frame Time:   0.008333
 -2.376719   0.925631   3.975860   0.000000   0.000000   0.000000   0.000000   0.000000   0.000000   0.000000   0.000000   0.000000   0.000000   0.000000   0.000000   0.000000   0.000000   0.000000   0.000000   0.000000   0.000000   0.000000   0.000000   0.000000   0.000000   0.000000   0.000000   0.000000   0.000000   0.000000   0.000000   0.000000   0.000000   0.000000   0.000000   0.000000   0.000000   0.000000   0.000000   0.000000   0.000000   0.000000   0.000000   0.000000   0.000000   0.000000   0.000000   0.000000   0.000000   0.000000   0.000000   0.000000   0.000000   0.000000   0.000000   0.000000   0.000000   0.000000   0.000000   0.000000   0.000000   0.000000   0.000000
 -2.376635   0.925743   3.976822  -1.571105   0.501195  -0.178059   1.472708  -0.233923   0.076600   0.340415   0.115263   0.276019  -0.006651   0.364460  -0.020173   0.264411  -0.881901  -0.412955   1.059318   0.078368   2.348232   0.040223   2.166028  -0.030256   0.311686  -0.728027  -2.397190  -0.442108   0.169591   0.074567  -0.336731  -0.362994  -2.078557   0.055784  -3.503646  -0.014785   0.149517   1.618018   2.373815   0.729471  -0.170983   0.197404   3.343017  -0.000029   0.009572  -0.174468  -0.529498   0.470644  -0.577922   0.002370   0.001077   1.382871  -0.293757   0.168619   2.096187   0.000467   0.003705  -2.920237  -0.260155   0.022794   0.232141  -0.000017  -0.000114
 -2.376409   0.926461   3.978204  -3.349109   1.214249  -0.448638   2.849432  -0.533395   0.267663   0.797332   0.119665   0.621703   0.061103   0.732448  -0.013659   0.524166  -1.701139  -0.244617   2.094979   0.246433   5.140873   0.092771   4.261516  -0.049686   0.684756  -0.835822  -4.242774  -0.860961   0.135741  -0.449473  -0.688003  -0.911607  -4.493846   0.128816  -7.175115  -0.032322   0.290425   2.097371   4.100826   1.269167  -0.311699   0.487104   6.318773   0.002054   0.022231  -0.903391  -1.018793   0.802085  -2.752866   0.007086  -0.000098   3.132101  -0.570176   0.421952   4.472246   0.002475   0.011444  -5.645743  -0.506370   0.028402   0.347310   0.000035   0.000080
 -2.376024   0.927332   3.980229  -5.124726   2.189395  -0.691436   4.013437  -0.941346   0.475906   1.189309  -0.010175   0.976706   0.130548   1.077329   0.003820   0.772373  -2.462316   0.311137   3.102706   0.467236   8.231822   0.143897   6.226622  -0.058226   1.055401  -0.766814  -5.418061  -1.249191  -0.028877  -1.335358  -1.047246  -1.519356  -7.053026   0.200808 -10.898430  -0.054760   0.435422   2.116227   5.118316   1.756290  -0.485146   0.761699   9.597800   0.007015   0.039890  -1.324289  -1.518018   1.140417  -5.662327   0.010976  -0.005904   5.070075  -0.829465   0.666821   6.832422   0.006227   0.022604  -8.181981  -0.737323   0.018266   0.469534   0.000142   0.000539
 -2.375492   0.927985   3.982729  -6.809444   3.365352  -0.868472   4.966953  -1.428284   0.674328   1.467544  -0.246027   1.314386   0.177039   1.399022   0.022322   1.015918  -3.197198   1.105167   4.088842   0.721304  11.526574   0.187222   8.055993  -0.059600   1.405915  -0.675312  -6.074467  -1.605601  -0.257293  -2.432962  -1.408244  -2.129209  -9.650935   0.262362 -14.644836  -0.080158   0.573456   1.951015   5.602803   2.213349  -0.624573   0.994413  12.816038   0.014768   0.059386  -1.587380  -1.963032   1.475696  -8.151814   0.012041  -0.015273   7.074862  -1.066846   0.894658   9.113139   0.011277   0.034708 -10.546422  -0.952432  -0.003607   0.583669   0.000267   0.001095
 -2.374856   0.928237   3.985503  -8.383318   4.645200  -0.984080   5.747181  -1.959560   0.860871   1.644647  -0.554269   1.628193   0.198740   1.700118   0.038045   1.260420  -3.910095   2.038860   5.057144   1.009828  14.958490   0.220725   9.755144  -0.057114   1.730377  -0.612582  -6.374693  -1.930936  -0.518361  -3.649307  -1.767048  -2.723253 -12.223054   0.304491 -18.206619  -0.103784   0.706364   1.649211   5.722601   2.633476  -0.740401   1.215567  15.900756   0.023603   0.076417  -1.787924  -2.364083   1.800107 -10.020575   0.011566  -0.022633   9.097046  -1.281294   1.121794  11.295331   0.016907   0.045266 -12.751808  -1.151850  -0.032957   0.688238   0.000388   0.001598
 -2.374103   0.927956   3.988374  -9.845623   5.951287  -1.044212   6.392665  -2.510592   1.036926   1.747014  -0.906120   1.926093   0.199867   1.981976   0.046723   1.511469  -4.600783   3.078654   5.975913   1.326754  18.376662   0.243714  11.333398  -0.052566   2.029497  -0.585332  -6.384268  -2.224331  -0.785768  -4.922204  -2.118366  -3.282356 -14.729119   0.327106 -21.538270  -0.122878   0.827632   1.304599   5.604502   3.010436  -0.840595   1.435923  18.831518   0.032185   0.088915  -1.948915  -2.726895   2.110267 -11.516681   0.010456  -0.027383  11.108094  -1.475012   1.344816  13.374391   0.022561   0.052936 -14.809232  -1.336621  -0.066697   0.783561   0.000501   0.001977
 -2.373536   0.926435   3.989406 -10.257759   6.597720  -1.212572   6.498661  -2.593524   1.257021   1.475944  -1.080811   2.088601   0.026831   2.111022   0.032441   1.842872  -5.313812   3.733007   7.399984   1.607727  21.647942   0.277268  13.450536  -0.063672   2.227087  -0.603836  -5.637972  -2.279092  -0.877039  -5.615797  -2.582846  -3.834678 -17.409843   0.343115 -25.279739  -0.136438   0.776449   1.147070   5.153556   1.848768  -1.063479   1.430547  21.289515   0.037111   0.077133  -3.510999  -3.079269   2.538528 -10.743574   0.007218  -0.021925  12.549252  -1.553475   1.675426  13.520462   0.018261   0.042916 -16.301854  -1.661079  -0.164534   1.013846   0.000652   0.001875
 -2.373143   0.923787   3.989239 -10.525204   7.136973  -1.392229   6.768408  -2.657561   1.466172   1.234924  -1.222670   2.228589  -0.163904   2.228548   0.013324   2.142703  -5.922646   4.230377   8.701827   1.986047  24.619797   0.292800  15.454188  -0.074670   2.452496  -0.427214  -4.902536  -2.345216  -1.008242  -6.129920  -3.052221  -4.377330 -19.836165   0.343322 -28.890085  -0.135464   0.738362   0.838046   4.774687   0.347450  -1.304336   1.273780  23.323362   0.040225   0.063518  -4.992319  -3.428618   2.927437 -10.113562   0.005487  -0.018070  13.856890  -1.643764   2.134205  13.370042   0.014456   0.033937 -17.711379  -1.964110  -0.262967   1.210756   0.000475   0.001555
 -2.372869   0.920067   3.988317 -10.765283   7.647503  -1.559832   7.176208  -2.733144   1.658559   1.101297  -1.368932   2.355794  -0.325055   2.337645  -0.006742   2.403888  -6.440530   4.612650   9.880417   2.434891  27.323068   0.295765  17.339675  -0.083985   2.681350  -0.166761  -4.310459  -2.437484  -1.198431  -6.513719  -3.534780  -4.922279 -22.038194   0.333482 -32.283920  -0.124751   0.722082   0.405876   4.548106  -1.306227  -1.520726   0.988970  25.084326   0.042267   0.051434  -6.379463  -3.767906   3.280397  -9.544387   0.004616  -0.014840  15.102026  -1.724687   2.694989  13.178543   0.011630   0.026624 -19.031416  -2.242854  -0.360152   1.383768   0.000153   0.001268
 -2.372679   0.915324   3.986954 -10.996387   8.148311  -1.710470   7.672957  -2.823633   1.836798   1.057532  -1.527093   2.471730  -0.454165   2.438993  -0.026840   2.633088  -6.895834   4.904980  10.948333   2.921696  29.789380   0.290123  19.108826  -0.090556   2.906945   0.133135  -3.850046  -2.553114  -1.429006  -6.800537  -4.026316  -5.457657 -24.049119   0.318263 -35.469441  -0.109288   0.721647  -0.103276   4.446350  -3.039369  -1.702122   0.598194  26.637991   0.043385   0.041256  -7.676088  -4.094701   3.600865  -9.023948   0.004256  -0.012043  16.308828  -1.790201   3.334805  12.993150   0.009542   0.020755 -20.264760  -2.499094  -0.455400   1.542070  -0.000220   0.001042
 -2.372552   0.909605   3.985365 -11.220651   8.640609  -1.844636   8.219486  -2.927070   2.003068   1.077401  -1.696371   2.577207  -0.557266   2.533284  -0.046382   2.838699  -7.310921   5.126657  11.919872   3.421066  32.046320   0.278662  20.763846  -0.094039   3.125187   0.440981  -3.492357  -2.685329  -1.679088  -7.015482  -4.519952  -5.970889 -25.895336   0.300322 -38.455557  -0.092308   0.732071  -0.658398   4.434695  -4.807863  -1.845205   0.124015  28.021632   0.043629   0.032809  -8.887388  -4.407764   3.892112  -8.546922   0.004171  -0.009632  17.487123  -1.838028   4.034102  12.824950   0.007972   0.016085 -21.416364  -2.734861  -0.548148   1.688464  -0.000589   0.000864
